<?xml version="1.0" encoding="UTF-8"?>
<svg version="1.1" xmlns="http://www.w3.org/2000/svg" width="216" height="220">
<path d="M0 0 C0.65880157 0.00054382 1.31760315 0.00108765 1.99636841 0.00164795 C12.94884998 0.0431051 23.0324326 0.91979187 33.4375 4.375 C34.0867041 4.58930664 34.7359082 4.80361328 35.40478516 5.02441406 C63.49588867 14.64724533 85.61372886 34.71307639 98.68676758 61.28076172 C105.81624622 76.372306 108.83581607 91.25909217 108.8125 107.9375 C108.81195618 108.59630157 108.81141235 109.25510315 108.81085205 109.93386841 C108.7693949 120.88634998 107.89270813 130.9699326 104.4375 141.375 C104.22319336 142.0242041 104.00888672 142.6734082 103.78808594 143.34228516 C94.16525467 171.43338867 74.09942361 193.55122886 47.53173828 206.62426758 C32.440194 213.75374622 17.55340783 216.77331607 0.875 216.75 C0.21619843 216.74945618 -0.44260315 216.74891235 -1.12136841 216.74835205 C-12.07384998 216.7068949 -22.1574326 215.83020813 -32.5625 212.375 C-33.2117041 212.16069336 -33.8609082 211.94638672 -34.52978516 211.72558594 C-62.62088867 202.10275467 -84.73872886 182.03692361 -97.81176758 155.46923828 C-104.94124622 140.377694 -107.96081607 125.49090783 -107.9375 108.8125 C-107.93695618 108.15369843 -107.93641235 107.49489685 -107.93585205 106.81613159 C-107.8943949 95.86365002 -107.01770813 85.7800674 -103.5625 75.375 C-103.34819336 74.7257959 -103.13388672 74.0765918 -102.91308594 73.40771484 C-93.29025467 45.31661133 -73.22442361 23.19877114 -46.65673828 10.12573242 C-31.565194 2.99625378 -16.67840783 -0.02331607 0 0 Z " fill="#EDECEC" transform="translate(107.5625,1.625)"/>
<path d="M0 0 C1.11391113 0.55719727 2.22782227 1.11439453 3.37548828 1.68847656 C4.70466212 2.33748566 6.03515738 2.98379287 7.36669922 3.62792969 C8.45791077 4.15833862 8.45791077 4.15833862 9.57116699 4.69946289 C14.03125794 6.82117582 18.55844446 8.79263963 23.07861328 10.78222656 C25.05780671 11.65716602 27.03697307 12.53216672 29.01611328 13.40722656 C32.06567275 14.75357988 35.11569165 16.09887054 38.16650391 17.44238281 C41.1593196 18.76112192 44.1503231 20.08390153 47.14111328 21.40722656 C48.50830002 22.00727509 48.50830002 22.00727509 49.90310669 22.6194458 C50.7552475 22.99704041 51.60738831 23.37463501 52.48535156 23.76367188 C53.59996262 24.25495575 53.59996262 24.25495575 54.73709106 24.75616455 C55.83040237 25.28726837 55.83040237 25.28726837 56.94580078 25.82910156 C57.85109024 26.20821182 58.7563797 26.58732208 59.68910217 26.97792053 C61.94580078 28.82910156 61.94580078 28.82910156 62.54707336 32.22697449 C62.56157381 33.65576267 62.54825625 35.08499051 62.51342773 36.51342773 C62.51452293 37.68451332 62.51452293 37.68451332 62.51564026 38.8792572 C62.51215558 41.46090074 62.47325558 44.04074189 62.43408203 46.62207031 C62.42475697 48.41139236 62.41763941 50.20072716 62.41264343 51.99006653 C62.39354931 56.7004214 62.34442804 61.41000579 62.28912354 66.12005615 C62.23798289 70.92596004 62.2151405 75.7319884 62.18994141 80.53808594 C62.13631139 89.96876307 62.05096961 99.39886826 61.94580078 108.82910156 C53.11750048 113.29585375 44.29384989 117.70207213 35.22314453 121.66113281 C34.30795547 122.06442307 33.39276642 122.46771332 32.44984436 122.88322449 C29.5959548 124.13975261 26.73968754 125.39076235 23.88330078 126.64160156 C21.94368952 127.49475777 20.00423553 128.34827161 18.06494141 129.20214844 C8.23938064 133.52459826 8.23938064 133.52459826 5.10348511 134.87442017 C3.73559545 135.4796518 2.38026364 136.11484407 1.04519653 136.78939819 C-3.43817295 138.99032503 -6.24456188 139.0663727 -11.05419922 137.82910156 C-14.1963301 136.6554867 -17.22066132 135.27832728 -20.25732422 133.85644531 C-21.5732254 133.25444054 -21.5732254 133.25444054 -22.91571045 132.64027405 C-25.71587332 131.35755087 -28.51023489 130.0627631 -31.30419922 128.76660156 C-34.95327847 127.08392749 -38.60487882 125.40679831 -42.25732422 123.73144531 C-43.15189331 123.31962006 -44.0464624 122.9077948 -44.96813965 122.48348999 C-51.98718463 119.26950707 -59.0748219 116.24357512 -66.22930908 113.34373474 C-71.84465898 111.0386418 -71.84465898 111.0386418 -74.05419922 108.82910156 C-74.26820423 106.28635226 -74.35829768 103.85107783 -74.3605957 101.3059082 C-74.36891922 100.53014938 -74.37724274 99.75439056 -74.38581848 98.9551239 C-74.4099728 96.38311795 -74.4186967 93.81136526 -74.42529297 91.23925781 C-74.43425451 89.45568259 -74.44337626 87.67210816 -74.45265198 85.88853455 C-74.46915883 82.14678111 -74.47684528 78.40511734 -74.47973633 74.66333008 C-74.48512483 69.86318956 -74.52281637 65.06388875 -74.56848049 60.26398563 C-74.59818746 56.5794312 -74.60545847 52.89508061 -74.60646248 49.21041679 C-74.61067676 47.44051704 -74.62315924 45.67061734 -74.64398003 43.90083504 C-74.67076686 41.42715386 -74.66610872 38.95544043 -74.65356445 36.48168945 C-74.66839874 35.74755829 -74.68323303 35.01342712 -74.69851685 34.25704956 C-74.66893005 32.21351624 -74.66893005 32.21351624 -74.05419922 28.82910156 C-71.76187134 26.96644592 -71.76187134 26.96644592 -69.05419922 25.82910156 C-68.39906845 25.50452972 -67.74393768 25.17995789 -67.06895447 24.84555054 C-66.11020164 24.41660995 -66.11020164 24.41660995 -65.13208008 23.97900391 C-64.39618149 23.64790619 -63.6602829 23.31680847 -62.90208435 22.97567749 C-62.11568069 22.62566681 -61.32927704 22.27565613 -60.51904297 21.91503906 C-59.68570938 21.54110016 -58.85237579 21.16716125 -57.99378967 20.78189087 C-55.32773589 19.58634535 -52.65977574 18.39512512 -49.99169922 17.20410156 C-47.38938975 16.03871421 -44.78747397 14.87245272 -42.18569946 13.70587158 C-40.44858113 12.92819595 -38.71060193 12.15244041 -36.97177124 11.37860107 C-32.46121911 9.36927826 -27.96820198 7.32997246 -23.49609375 5.23632812 C-22.59435928 4.81839996 -21.69262482 4.4004718 -20.76356506 3.96987915 C-19.04734658 3.17330583 -17.33517141 2.36794082 -15.62791443 1.55233765 C-9.98388038 -1.0525673 -6.05473892 -2.32122525 0 0 Z " fill="#DA4837" transform="translate(114.05419921875,41.1708984375)"/>
<path d="M0 0 C21.31251944 8.19712286 21.31251944 8.19712286 27.25 18.25 C28.24226026 19.90885562 29.24691105 21.56038209 30.265625 23.203125 C30.69649414 23.93176758 31.12736328 24.66041016 31.57128906 25.41113281 C32.04276367 25.93545898 32.51423828 26.45978516 33 27 C34.32 27 35.64 27 37 27 C36.48474397 21.71862571 34.74522883 18.42778844 32 14 C40.92748565 16.97582855 49.41845739 21.13830582 58 25 C58 39.52 58 54.04 58 69 C51 63 51 63 49 61 C46.41645782 60.83312552 46.41645782 60.83312552 44 61 C44.70212911 65.07560193 46.56900116 66.49289016 49.7121582 69.11254883 C54.32092957 73.03538615 58.2015097 76.35719191 58.859375 82.6328125 C58.95248381 86.80625245 58.57871254 90.86987204 58 95 C52.58252636 93.33350979 47.49219507 91.09186562 42.32421875 88.7890625 C41.39962357 88.37965424 40.47502838 87.97024597 39.52241516 87.5484314 C36.57629947 86.24318339 33.63188337 84.9341504 30.6875 83.625 C28.71951189 82.75235413 26.751414 81.87995581 24.78320312 81.0078125 C19.5207055 78.67508725 14.26001701 76.33831221 9 74 C6.03 72.68 3.06 71.36 0 70 C0 46.9 0 23.8 0 0 Z " fill="#EDECEC" transform="translate(47,77)"/>
<path d="M0 0 C0 23.1 0 46.2 0 70 C-21.8125 79.6875 -21.8125 79.6875 -28.62817383 82.71362305 C-30.4461429 83.52128425 -32.26409638 84.32898057 -34.08203125 85.13671875 C-34.99738647 85.54297485 -35.9127417 85.94923096 -36.85583496 86.36779785 C-37.76812866 86.77324829 -38.68042236 87.17869873 -39.62036133 87.59643555 C-40.49729645 87.98592377 -41.37423157 88.37541199 -42.27774048 88.77670288 C-44.20905558 89.64457466 -46.13460473 90.52532928 -48.05599976 91.41494751 C-49.04645294 91.87332001 -50.03690613 92.3316925 -51.05737305 92.80395508 C-51.95658981 93.22413406 -52.85580658 93.64431305 -53.78227234 94.07722473 C-56 95 -56 95 -58 95 C-59.95084925 82.16107758 -59.95084925 82.16107758 -56.72412109 76.93261719 C-53.56448467 73.08386549 -49.98089379 69.71035868 -46.19335938 66.48535156 C-44.58245413 64.79784774 -44.58245413 64.79784774 -45 61 C-48.11018278 61.3378302 -49.6622809 61.68554895 -51.984375 63.84765625 C-52.85835938 64.94400391 -52.85835938 64.94400391 -53.75 66.0625 C-54.81992612 67.3859521 -55.89978035 68.70162252 -57 70 C-57.33 70 -57.66 70 -58 70 C-58 55.15 -58 40.3 -58 25 C-50.41 21.7 -42.82 18.4 -35 15 C-34.67 15.66 -34.34 16.32 -34 17 C-35.0209375 18.36125 -35.0209375 18.36125 -36.0625 19.75 C-38.26982809 22.71472615 -38.26982809 22.71472615 -37.75 25.375 C-37.5025 25.91125 -37.255 26.4475 -37 27 C-35.05718366 26.76399376 -35.05718366 26.76399376 -33 26 C-31.78917389 24.4638861 -31.78917389 24.4638861 -30.94140625 22.5 C-24.20695812 9.62430095 -16.49775163 5.11145576 -2.86669922 0.55639648 C-1 0 -1 0 0 0 Z " fill="#EDECEC" transform="translate(169,77)"/>
<path d="M0 0 C0.90098419 0.41082321 1.80196838 0.82164642 2.73025513 1.24491882 C5.5975653 2.55457189 8.45897328 3.8765788 11.3203125 5.19921875 C13.2352921 6.07701223 15.15065336 6.95397361 17.06640625 7.83007812 C20.60642769 9.44962961 24.14379923 11.07473468 27.67919922 12.7043457 C32.24986461 14.80618582 36.84275145 16.85580051 41.4453125 18.88671875 C38.08264068 21.65548585 34.5339254 23.41346197 30.5703125 25.19921875 C29.37664062 25.75222656 28.18296875 26.30523437 26.953125 26.875 C20.02306819 28.87375803 14.27195644 24.33142253 8.25 21.12890625 C5.34699831 19.6167477 5.34699831 19.6167477 1.4453125 19.88671875 C1.47324407 22.28939375 1.47324407 22.28939375 2.4453125 24.88671875 C5.18194904 26.80022402 5.18194904 26.80022402 8.5078125 28.19921875 C9.61253906 28.71097656 10.71726562 29.22273438 11.85546875 29.75 C12.71011719 30.12511719 13.56476563 30.50023437 14.4453125 30.88671875 C9.79318719 34.61275475 4.55162124 36.74039359 -0.8671875 39.13671875 C-1.88748047 39.60851562 -2.90777344 40.0803125 -3.95898438 40.56640625 C-13.57264336 44.81704797 -13.57264336 44.81704797 -19.5546875 42.88671875 C-23.77014079 41.17094233 -27.88233817 39.2779216 -31.9921875 37.32421875 C-33.10529297 36.80408203 -34.21839844 36.28394531 -35.36523438 35.74804688 C-38.09903745 34.46914329 -40.82855129 33.1818641 -43.5546875 31.88671875 C-43.5546875 31.22671875 -43.5546875 30.56671875 -43.5546875 29.88671875 C-39.5946875 27.90671875 -35.6346875 25.92671875 -31.5546875 23.88671875 C-31.5546875 22.56671875 -31.5546875 21.24671875 -31.5546875 19.88671875 C-35.55144241 20.36632934 -38.31853332 21.87851859 -41.77148438 23.87084961 C-46.10901379 26.24434657 -50.01980848 28.35066344 -55.05712891 27.42871094 C-60.56315414 25.56558762 -65.56417908 22.83828102 -70.5546875 19.88671875 C-66.85264407 16.73949408 -62.67672853 14.99166482 -58.2734375 13.05078125 C-57.46410767 12.6895517 -56.65477783 12.32832214 -55.82092285 11.95614624 C-54.10724981 11.19236534 -52.39250014 10.43099609 -50.67675781 9.671875 C-48.08953961 8.52713935 -45.50543326 7.3756247 -42.921875 6.22265625 C-38.85794612 4.41122041 -34.78458614 2.62222579 -30.70800781 0.83947754 C-28.76390721 -0.02070983 -26.83375152 -0.90516691 -24.90625 -1.80175781 C-23.87242188 -2.26807617 -22.83859375 -2.73439453 -21.7734375 -3.21484375 C-20.48856445 -3.81159912 -20.48856445 -3.81159912 -19.17773438 -4.42041016 C-12.26776588 -6.24566058 -6.13407613 -2.85683968 0 0 Z " fill="#EDEBEA" transform="translate(122.5546875,52.11328125)"/>
</svg>
