<svg xmlns="http://www.w3.org/2000/svg" viewBox="0 0 216.000000 220.000000">
    <path d="M725 1646 c-280 -125 -320 -145 -319 -164 0 -12 1 -194 2 -405 l2
    -383 335 -148 335 -148 335 148 335 148 2 383 c1 211 2 393 2 405 1 19 -39 39
    -323 165 -204 90 -336 143 -355 142 -17 0 -175 -65 -351 -143z m645 -36 c151
    -67 276 -123 278 -124 1 -2 -43 -22 -98 -46 l-101 -44 -88 43 c-89 44 -123 49
    -129 19 -2 -13 17 -27 72 -55 l76 -38 -150 -67 -150 -66 -148 65 c-81 36 -149
    67 -151 69 -1 1 29 19 68 38 52 27 71 42 71 56 0 31 -41 25 -132 -21 l-81 -41
    -100 43 c-99 43 -99 43 -71 56 225 103 541 241 549 238 6 -1 134 -58 285 -125z
    m-790 -224 l95 -42 63 -92 c44 -64 69 -92 83 -92 33 0 32 26 -1 75 -18 26 -30
    48 -28 51 3 2 62 -22 131 -53 l127 -56 0 -219 0 -220 -52 46 c-59 52 -88 59
    -88 22 0 -17 21 -43 70 -89 l70 -65 0 -87 c0 -79 -2 -87 -17 -81 -10 4 -143
    62 -295 129 l-278 122 0 348 c0 271 3 347 13 346 6 0 55 -19 107 -43z m1120
    -303 l0 -348 -278 -122 c-152 -67 -285 -125 -294 -129 -16 -5 -18 2 -18 72 l0
    79 71 78 c70 79 82 108 44 116 -13 2 -34 -13 -67 -50 l-47 -54 -1 226 0 226
    125 55 c69 31 125 53 125 49 0 -3 -11 -23 -25 -43 -32 -47 -33 -78 -2 -78 17
    0 35 20 78 88 l56 88 104 46 c57 26 110 47 117 47 9 1 12 -75 12 -346z"/>
</svg>
